<svg height="464pt" viewBox="-31 0 463 464" width="464pt" xmlns="http://www.w3.org/2000/svg"><path d="m168.5 104v24h-72c-8.808594.066406-15.933594 7.191406-16 16 .027344 8.824219 7.175781 15.972656 16 16h128c8.808594-.066406 15.933594-7.191406 16-16-.027344-8.824219-7.175781-15.972656-16-16h-24v-24h64c13.253906 0 24-10.746094 24-24s-10.746094-24-24-24h-104v-24h208c8.808594-.066406 15.933594-7.191406 16-16-.027344-8.824219-7.175781-15.9726562-16-16h-288c-8.808594.0664062-15.933594 7.191406-16 16 .027344 8.824219 7.175781 15.972656 16 16h32v24h-88c-13.253906 0-24 10.746094-24 24s10.746094 24 24 24zm0 0" fill="#ffb655"/><path d="m320.5 192v208c0 35.347656-28.652344 64-64 64h-176c-35.347656 0-64-28.652344-64-64v-208zm0 0" fill="#00b6bd"/><path d="m352.5 224h-32v32h32c8.824219.027344 15.972656 7.175781 16 16v64c-.027344 8.824219-7.175781 15.972656-16 16h-32v32h32c26.507812 0 48-21.492188 48-48v-64c0-26.507812-21.492188-48-48-48zm0 0" fill="#009698"/><path d="m213.78125 238.878906c-12.761719-.050781-25.011719 5.023438-34 14.082032l-11.28125 11.277343-11.28125-11.277343c-12.082031-12.296876-29.835938-17.167969-46.503906-12.761719-16.667969 4.40625-29.695313 17.417969-34.121094 34.078125-4.425781 16.664062.421875 34.421875 12.707031 46.523437l79.199219 79.199219 79.199219-79.199219c18.71875-18.742187 18.71875-49.101562 0-67.839843-8.957031-9.054688-21.179688-14.128907-33.917969-14.082032zm0 0" fill="#ab2300"/><path d="m80.5 440c-22.082031-.027344-39.972656-17.917969-40-40 0-4.417969 3.582031-8 8-8s8 3.582031 8 8c0 13.253906 10.746094 24 24 24 4.417969 0 8 3.582031 8 8s-3.582031 8-8 8zm0 0" fill="#009698"/></svg>